<svg width="80" height="90" viewBox="0 0 80 90" fill="none" xmlns="http://www.w3.org/2000/svg">
<path d="M35.6867 0.914983L1.57568 24.7067L47.192 12.5424L36.3372 0.982817C36.1673 0.801848 35.8903 0.772966 35.6867 0.914983Z" fill="#2DECDD" stroke="#2DECDD"/>
<path d="M36.0371 0.82782L47.0243 12.5045C47.0941 12.5787 47.1849 12.6298 47.2845 12.651L76.3674 18.8272L36.0371 0.82782Z" fill="#10E4D4" stroke="#10E4D4"/>
<path d="M44.3265 88.638L2.5979 70.2453L25.9013 57.9332C26.134 57.8102 26.4221 57.8887 26.5603 58.1127L44.9537 87.9179C45.2115 88.3357 44.7758 88.836 44.3265 88.638Z" fill="#01BCB5" stroke="#01BCB5"/>
<path d="M1.25195 26.4535L26.1077 56.6864C26.3093 56.9317 26.2343 57.3003 25.9528 57.4472L2.17451 69.8609C1.84249 70.0342 1.44479 69.7944 1.44313 69.4198L1.25195 26.4535Z" fill="#2BD8CF" stroke="#2BD8CF"/>
<path d="M1.3416 25.5011L26.5796 56.7605L46.1918 13.3504L1.60725 24.7024C1.25417 24.7923 1.11272 25.2176 1.3416 25.5011Z" fill="#95F6EF" stroke="#95F6EF"/>
<path d="M27.2922 57.1795L47.1253 13.639L72.9907 55.3313L27.2922 57.1795Z" fill="#73E8DF" stroke="#73E8DF"/>
<path d="M72.7768 56.3036L44.8448 88.4743C44.6169 88.7368 44.1972 88.6923 44.0294 88.3878L27.3462 58.1202L72.7768 56.3036Z" fill="#24BCB8" stroke="#24BCB8"/>
<path d="M78.0868 64.8717L73.6444 56.6757L44.7472 88.4506C44.6665 88.5393 44.7817 88.6689 44.8793 88.5993L78.0868 64.8717Z" fill="#00918C" stroke="#00918C"/>
<path d="M76.5407 19.0901L73.8664 54.7945C73.8603 54.8751 73.8739 54.9559 73.906 55.0301L77.8789 64.2238C78.0999 64.7353 78.8657 64.5564 78.8372 63.9999L76.5407 19.0901Z" fill="#04AFA0" stroke="#04AFA0"/>
<path d="M76.14 18.6967L48.0852 13.3275L73.3941 54.3555L76.5441 19.2325C76.567 18.9766 76.3923 18.745 76.14 18.6967Z" fill="#5DE8DB" stroke="#5DE8DB"/>
</svg>
