<svg width="61" height="69" viewBox="0 0 61 69" fill="none" xmlns="http://www.w3.org/2000/svg">
<path d="M26.6962 1.187L0.813477 19.2397L35.5393 9.97942L27.3467 1.25484C27.1768 1.07387 26.8998 1.04498 26.6962 1.187Z" fill="#2DECDD" stroke="#2DECDD"/>
<path d="M27.0476 1.0616L35.3861 9.92341C35.4559 9.99761 35.5467 10.0487 35.6464 10.0699L57.7495 14.7638L27.0476 1.0616Z" fill="#10E4D4" stroke="#10E4D4"/>
<path d="M33.0068 67.7531L1.5918 53.9063L19.233 44.5858C19.4657 44.4629 19.7539 44.5413 19.8921 44.7653L33.6339 67.033C33.8917 67.4508 33.456 67.9511 33.0068 67.7531Z" fill="#01BCB5" stroke="#01BCB5"/>
<path d="M0.567139 20.5694L19.3954 43.471C19.597 43.7162 19.522 44.0848 19.2406 44.2318L1.44319 53.523C1.11116 53.6964 0.713465 53.4565 0.711799 53.082L0.567139 20.5694Z" fill="#2BD8CF" stroke="#2BD8CF"/>
<path d="M0.752241 19.9891L19.848 43.6409L34.778 10.5945L1.0179 19.1905C0.664813 19.2804 0.52336 19.7056 0.752241 19.9891Z" fill="#95F6EF" stroke="#95F6EF"/>
<path d="M20.3906 43.9599L35.4887 10.8143L55.179 42.5529L20.3906 43.9599Z" fill="#73E8DF" stroke="#73E8DF"/>
<path d="M55.0162 43.2931L33.8648 67.6542C33.6368 67.9168 33.2172 67.8723 33.0494 67.5678L20.4316 44.676L55.0162 43.2931Z" fill="#24BCB8" stroke="#24BCB8"/>
<path d="M59.0584 49.8157L55.6766 43.5763L33.8289 67.5996C33.7483 67.6883 33.8635 67.818 33.9611 67.7483L59.0584 49.8157Z" fill="#00918C" stroke="#00918C"/>
<path d="M57.8814 14.964L55.8478 42.115C55.8418 42.1956 55.8554 42.2764 55.8874 42.3506L58.6376 48.7148C58.8586 49.2263 59.6244 49.0474 59.5959 48.4909L57.8814 14.964Z" fill="#04AFA0" stroke="#04AFA0"/>
<path d="M57.4704 14.6442L36.2195 10.5771L55.4861 41.8101L57.8744 15.1799C57.8974 14.9241 57.7227 14.6925 57.4704 14.6442Z" fill="#5DE8DB" stroke="#5DE8DB"/>
</svg>
