<svg width="31" height="31" viewBox="0 0 31 31" fill="none" xmlns="http://www.w3.org/2000/svg">
<path d="M13.6317 15.3233L1.87466 13.7083C1.37961 13.6403 1.01074 13.2173 1.01074 12.7176V2.58966C1.01074 2.03738 1.45846 1.58966 2.01074 1.58966H12.1398C12.639 1.58966 13.0618 1.95785 13.1303 2.45234L14.7583 14.1953C14.8493 14.8517 14.2882 15.4135 13.6317 15.3233Z" stroke="#ECF6FF" stroke-width="2"/>
<path d="M28.1505 13.711L16.3205 15.3788C15.6607 15.4718 15.0962 14.9058 15.191 14.2463L16.8875 2.44734C16.9583 1.9551 17.3801 1.58966 17.8774 1.58966H28.0109C28.5631 1.58966 29.0109 2.03738 29.0109 2.58966V12.7208C29.0109 13.2191 28.6439 13.6414 28.1505 13.711Z" stroke="#ECF6FF" stroke-width="2"/>
<path d="M28.0106 29.5897H17.8776C17.3801 29.5897 16.9582 29.224 16.8877 28.7315L15.1907 16.8874C15.0961 16.2266 15.663 15.6604 16.3237 15.7559L28.1537 17.4658C28.6456 17.5369 29.0106 17.9585 29.0106 18.4555V28.5897C29.0106 29.142 28.5629 29.5897 28.0106 29.5897Z" stroke="#ECF6FF" stroke-width="2"/>
<path d="M12.1383 29.5897H2.01074C1.45846 29.5897 1.01074 29.1419 1.01074 28.5897V18.451C1.01074 17.9559 1.37298 17.5354 1.86258 17.462L13.6196 15.7007C14.2793 15.6019 14.849 16.1644 14.7585 16.8253L13.1291 28.7253C13.0613 29.2206 12.6382 29.5897 12.1383 29.5897Z" stroke="#ECF6FF" stroke-width="2"/>
</svg>
