<svg width="31" height="31" viewBox="0 0 31 31" fill="none" xmlns="http://www.w3.org/2000/svg">
<path d="M14.0635 14.9443L2.30654 13.3293C1.81149 13.2613 1.44263 12.8383 1.44263 12.3386V2.21063C1.44263 1.65835 1.89034 1.21063 2.44263 1.21063H12.5717C13.0709 1.21063 13.4937 1.57882 13.5622 2.07331L15.1902 13.8163C15.2812 14.4727 14.7201 15.0345 14.0635 14.9443Z" stroke="#F33A75" stroke-width="2"/>
<path d="M28.5822 13.3319L16.7522 14.9998C16.0925 15.0928 15.528 14.5267 15.6228 13.8672L17.3193 2.06831C17.3901 1.57607 17.8118 1.21063 18.3091 1.21063H28.4426C28.9949 1.21063 29.4426 1.65835 29.4426 2.21063V12.3417C29.4426 12.8401 29.0757 13.2624 28.5822 13.3319Z" stroke="#F33A75" stroke-width="2"/>
<path d="M28.4426 29.2106H18.3096C17.8121 29.2106 17.3903 28.8449 17.3197 28.3525L15.6227 16.5084C15.5281 15.8476 16.095 15.2814 16.7557 15.3768L28.5857 17.0868C29.0776 17.1579 29.4426 17.5795 29.4426 18.0765V28.2106C29.4426 28.7629 28.9949 29.2106 28.4426 29.2106Z" stroke="#F33A75" stroke-width="2"/>
<path d="M12.5702 29.2106H2.44263C1.89034 29.2106 1.44263 28.7629 1.44263 28.2106V18.072C1.44263 17.5769 1.80487 17.1564 2.29447 17.083L14.0515 15.3217C14.7112 15.2228 15.2809 15.7854 15.1904 16.4463L13.561 28.3463C13.4932 28.8415 13.0701 29.2106 12.5702 29.2106Z" stroke="#F33A75" stroke-width="2"/>
</svg>
