<svg width="29" height="30" viewBox="0 0 29 30" fill="none" xmlns="http://www.w3.org/2000/svg">
<path d="M8.55086 5.94409L3.84516 14.7983L12.4935 6.73769L8.55086 5.94409Z" fill="#EEE4F1" stroke="#EEE4F1"/>
<path d="M8.82377 5.83769L12.1352 6.13119C12.1802 6.13517 12.2255 6.13305 12.27 6.12487L19.5622 4.78176L8.82465 5.6384C8.70246 5.64815 8.70167 5.82687 8.82377 5.83769Z" fill="#F3BCCF" stroke="#F4B7CB"/>
<path d="M19.3549 23.7705L10.0243 24.7157L12.9192 19.6684C13.0684 19.4083 13.4114 19.3371 13.6518 19.5164L19.3549 23.7705Z" fill="#E492AA" stroke="#E492AA"/>
<path d="M4.37376 15.9942L12.556 18.8215C12.8678 18.9293 12.9916 19.3042 12.8053 19.5764L9.27186 24.7411C9.22961 24.8028 9.13699 24.798 9.10138 24.7322L4.37376 15.9942Z" fill="#EEA7BD" stroke="#EEA7BD"/>
<path d="M3.85168 14.9863L13.1459 18.9371L11.7829 7.65093L3.82388 14.82C3.76955 14.8689 3.78439 14.9577 3.85168 14.9863Z" fill="#F5C4D5" stroke="#F5C4D5"/>
<path d="M13.7583 18.7131L12.7309 7.50938L23.2342 13.1554L13.7583 18.7131Z" fill="#EECCD8" stroke="#EECCD8"/>
<path d="M23.3015 13.3955L21.0392 23.2639C20.961 23.6049 20.5659 23.7622 20.2747 23.5684L14.2358 19.5487L23.3015 13.3955Z" fill="#EAA0B5" stroke="#EAA0B5"/>
<path d="M25.3776 14.7205L23.537 13.3755L20.7977 23.3065C20.7657 23.4227 20.9287 23.4859 20.9833 23.3783L25.3776 14.7205Z" fill="#DE8CA5" stroke="#DE8CA5"/>
<path d="M19.7505 4.7282L23.4988 12.6578L25.36 14.4527C25.4441 14.5338 25.5753 14.4294 25.5151 14.3292L19.7505 4.7282Z" fill="#EDA1B8" stroke="#EDA1B8"/>
<path d="M19.2542 4.81055L13.3252 6.77371L22.1903 11.8571L19.8844 5.12322C19.7955 4.86385 19.5144 4.72437 19.2542 4.81055Z" fill="#F4B6CA" stroke="#F4B6CA"/>
</svg>
